<svg width="20" height="20" viewBox="0 0 20 20" fill="none" xmlns="http://www.w3.org/2000/svg">
<path d="M11.0275 0C12.1529 0.00186006 12.7233 0.00781028 13.2161 0.0224808L13.4102 0.028831C13.6344 0.0368013 13.8556 0.0468018 14.1223 0.0593022C15.1864 0.108464 15.9124 0.27681 16.5499 0.524318C17.209 0.778487 17.7657 1.12184 18.3215 1.67769C18.8766 2.23354 19.22 2.7919 19.475 3.44942C19.7216 4.0861 19.89 4.81279 19.94 5.877C19.9519 6.14367 19.9615 6.36488 19.9694 6.58913L19.9757 6.78322C19.9903 7.27599 19.997 7.84639 19.9991 8.97183L19.9999 9.71755C20 9.80865 20 9.90266 20 9.99966L19.9999 10.2818L19.9993 11.0275C19.9974 12.1529 19.9915 12.7233 19.9768 13.2161L19.9704 13.4102C19.9625 13.6344 19.9525 13.8556 19.94 14.1223C19.8908 15.1864 19.7216 15.9124 19.475 16.5499C19.2208 17.209 18.8766 17.7657 18.3215 18.3215C17.7657 18.8766 17.2065 19.22 16.5499 19.475C15.9124 19.7216 15.1864 19.89 14.1223 19.94C13.8556 19.9519 13.6344 19.9615 13.4102 19.9694L13.2161 19.9757C12.7233 19.9903 12.1529 19.997 11.0275 19.9991L10.2818 19.9999C10.1907 20 10.0967 20 9.99966 20L9.71755 19.9999L8.97183 19.9993C7.84639 19.9974 7.27599 19.9915 6.78322 19.9768L6.58913 19.9704C6.36488 19.9625 6.14367 19.9525 5.877 19.94C4.81279 19.8908 4.08777 19.7216 3.44942 19.475C2.79106 19.2208 2.23354 18.8766 1.67769 18.3215C1.12184 17.7657 0.779327 17.2065 0.524318 16.5499C0.27681 15.9124 0.109304 15.1864 0.0593022 14.1223C0.0474218 13.8556 0.0377313 13.6344 0.0298811 13.4102L0.0235909 13.2161C0.00896039 12.7233 0.00229025 12.1529 0.000130181 11.0275L0 8.97183C0.00186006 7.84639 0.00781028 7.27599 0.0224808 6.78322L0.028831 6.58913C0.0368013 6.36488 0.0468018 6.14367 0.0593022 5.877C0.108464 4.81196 0.27681 4.08694 0.524318 3.44942C0.778487 2.79106 1.12184 2.23354 1.67769 1.67769C2.23354 1.12184 2.7919 0.779327 3.44942 0.524318C4.08694 0.27681 4.81196 0.109304 5.877 0.0593022C6.14367 0.0474218 6.36488 0.0377313 6.58913 0.0298811L6.78322 0.0235909C7.27599 0.00896039 7.84639 0.00229025 8.97183 0.000130181L11.0275 0ZM9.99966 4.99947C7.23665 4.99947 4.99947 7.23908 4.99947 9.99966C4.99947 12.7627 7.23908 14.9998 9.99966 14.9998C12.7627 14.9998 14.9998 12.7602 14.9998 9.99966C14.9998 7.23665 12.7602 4.99947 9.99966 4.99947ZM9.99966 6.99954C11.6566 6.99954 12.9998 8.34221 12.9998 9.99966C12.9998 11.6566 11.657 12.9998 9.99966 12.9998C8.34271 12.9998 6.99954 11.657 6.99954 9.99966C6.99954 8.34271 8.34221 6.99954 9.99966 6.99954ZM15.2498 3.49942C14.5605 3.49942 13.9998 4.05934 13.9998 4.74861C13.9998 5.43788 14.5597 5.99866 15.2498 5.99866C15.9391 5.99866 16.4999 5.43875 16.4999 4.74861C16.4999 4.05934 15.9382 3.49855 15.2498 3.49942Z" fill="black"/>
</svg>
