<svg width="23" height="20" viewBox="0 0 23 20" fill="none" xmlns="http://www.w3.org/2000/svg">
<path d="M5.30534 2.22312C5.30493 3.12787 4.75414 3.94203 3.91268 4.28169C3.07123 4.62136 2.10714 4.4187 1.47503 3.76929C0.842916 3.11987 0.669014 2.15337 1.03531 1.32554C1.40162 0.497716 2.23499 -0.0261366 3.14245 0.00100656C4.34773 0.0370604 5.30589 1.02145 5.30534 2.22312ZM5.37224 6.0896H0.912652V20H5.37224V6.0896ZM12.4184 6.0896H7.98109V20H12.3738V12.7004C12.3738 8.63389 17.6919 8.25613 17.6919 12.7004V20H22.0957V11.1893C22.0957 4.33413 14.2245 4.58967 12.3738 7.95614L12.4184 6.0896Z" fill="#FDB88F"/>
</svg>
